<svg xmlns="http://www.w3.org/2000/svg" width="100" height="100" viewBox="0 0 100 100">
  <g id="support" transform="translate(0 0)">
    <path id="Path_252" data-name="Path 252" d="M17.588,77.333a8.154,8.154,0,0,0-3.94,1.006A46.115,46.115,0,0,1,59.179,4.82,1.953,1.953,0,0,0,59.953.99,50.372,50.372,0,0,0,50,0a50,50,0,0,0-39.24,80.987,8.206,8.206,0,1,0,6.828-3.653Zm3.038,11.241a4.3,4.3,0,1,1,1.259-3.038A4.267,4.267,0,0,1,20.626,88.574Zm0,0" transform="translate(0 0)" fill="#ffb900"/>
    <path id="Path_253" data-name="Path 253" d="M248.151,44.8a8.186,8.186,0,1,0-2.887,2.65,46.114,46.114,0,0,1-45.444,73.537,1.953,1.953,0,0,0-.767,3.831,50.407,50.407,0,0,0,9.859.972A50,50,0,0,0,248.151,44.8Zm-9.865-1.509a4.3,4.3,0,1,1,3.038,1.258A4.269,4.269,0,0,1,238.286,43.293Zm0,0" transform="translate(-158.913 -25.791)" fill="#ffb900"/>
    <path id="Path_254" data-name="Path 254" d="M101.474,143.141a1.953,1.953,0,0,0,1.953,1.953H115.64a1.953,1.953,0,0,0,1.953-1.953v-3.786a30.586,30.586,0,0,0,7.33-3.038l2.673,2.673a1.952,1.952,0,0,0,2.763,0l8.632-8.638a1.954,1.954,0,0,0,0-2.762l-2.67-2.67a30.584,30.584,0,0,0,3.038-7.33h3.772a1.953,1.953,0,0,0,1.953-1.953V103.423a1.953,1.953,0,0,0-1.953-1.953h-3.773a30.59,30.59,0,0,0-3.037-7.33l2.656-2.656a1.953,1.953,0,0,0,0-2.763l-8.639-8.632a1.953,1.953,0,0,0-2.762,0l-2.652,2.653a30.586,30.586,0,0,0-7.33-3.038V75.953A1.953,1.953,0,0,0,115.64,74H103.427a1.953,1.953,0,0,0-1.953,1.953v3.752a30.559,30.559,0,0,0-7.33,3.037L91.492,80.09a1.954,1.954,0,0,0-2.762,0l-8.638,8.633a1.952,1.952,0,0,0,0,2.763l2.656,2.656a30.58,30.58,0,0,0-3.038,7.33H75.944a1.953,1.953,0,0,0-1.953,1.952l-.007,12.212a1.952,1.952,0,0,0,1.953,1.954h3.772a30.585,30.585,0,0,0,3.038,7.33l-2.67,2.67a1.953,1.953,0,0,0,0,2.762l8.632,8.638a1.954,1.954,0,0,0,1.381.573h0a1.953,1.953,0,0,0,1.381-.572l2.673-2.673a30.611,30.611,0,0,0,7.33,3.038ZM94.91,132.208a1.954,1.954,0,0,0-2.441.259l-2.378,2.378L84.22,128.97l2.376-2.377a1.952,1.952,0,0,0,.259-2.441,26.734,26.734,0,0,1-3.7-8.929,1.954,1.954,0,0,0-1.91-1.543H77.891l0-8.306h3.35a1.953,1.953,0,0,0,1.91-1.543,26.736,26.736,0,0,1,3.7-8.928,1.952,1.952,0,0,0-.259-2.441L84.235,90.1l5.875-5.871,2.358,2.359a1.955,1.955,0,0,0,2.441.259,26.723,26.723,0,0,1,8.928-3.7,1.954,1.954,0,0,0,1.543-1.91V77.906h8.306v3.335a1.952,1.952,0,0,0,1.543,1.91,26.745,26.745,0,0,1,8.928,3.7,1.952,1.952,0,0,0,2.441-.259l2.359-2.358,5.875,5.871-2.361,2.361a1.953,1.953,0,0,0-.259,2.441,26.752,26.752,0,0,1,3.7,8.928,1.952,1.952,0,0,0,1.91,1.543h3.356v8.306h-3.356a1.954,1.954,0,0,0-1.91,1.543,26.73,26.73,0,0,1-3.7,8.928,1.953,1.953,0,0,0,.259,2.441l2.376,2.376-5.871,5.875-2.378-2.377a1.953,1.953,0,0,0-2.441-.259,26.752,26.752,0,0,1-8.928,3.7,1.953,1.953,0,0,0-1.543,1.91v3.37h-8.306v-3.37a1.954,1.954,0,0,0-1.543-1.91A26.735,26.735,0,0,1,94.91,132.208Zm0,0" transform="translate(-59.534 -59.547)" fill="#ffb900"/>
    <path id="Path_255" data-name="Path 255" d="M205.648,189.51a16.138,16.138,0,1,0-16.138,16.138A16.157,16.157,0,0,0,205.648,189.51Zm-28.371,0a12.232,12.232,0,1,1,12.232,12.232A12.246,12.246,0,0,1,177.277,189.51Zm0,0" transform="translate(-139.51 -139.51)" fill="#ffb900"/>
    <path id="Path_256" data-name="Path 256" d="M340.031,21.717a1.955,1.955,0,1,0-1.38-.572A1.967,1.967,0,0,0,340.031,21.717Zm0,0" transform="translate(-272.048 -14.331)" fill="#ffb900"/>
    <path id="Path_257" data-name="Path 257" d="M156.312,474.359a1.954,1.954,0,1,0,1.381.572A1.968,1.968,0,0,0,156.312,474.359Zm0,0" transform="translate(-124.211 -381.711)" fill="#ffb900"/>
  </g>
</svg>
