<svg id="repair" xmlns="http://www.w3.org/2000/svg" width="100" height="100" viewBox="0 0 100 100">
  <path id="Path_245" data-name="Path 245" d="M339.293,155.148a1.953,1.953,0,1,0,1.953,1.952A1.952,1.952,0,0,0,339.293,155.148Zm0,0" transform="translate(-271.549 -124.845)" fill="#ffb900"/>
  <path id="Path_246" data-name="Path 246" d="M157.6,336.84a1.953,1.953,0,1,0,1.953,1.953A1.953,1.953,0,0,0,157.6,336.84Zm0,0" transform="translate(-125.342 -271.051)" fill="#ffb900"/>
  <path id="Path_247" data-name="Path 247" d="M98.073,12.015a1.952,1.952,0,0,0-1.828.526l-8.1,8.161H84.266l-4.273-4.427V12.339l7.981-8.1a1.953,1.953,0,0,0-.768-3.221A19.547,19.547,0,0,0,62.1,24.591L47.711,38.978,23.742,14.954V10.24a1.953,1.953,0,0,0-.948-1.675L8.983.278A1.952,1.952,0,0,0,6.6.572L1.074,6.094A1.955,1.955,0,0,0,.78,8.481l8.286,13.81a1.953,1.953,0,0,0,1.674.948l4.714,0L39.425,47.264,25.092,61.6A19.543,19.543,0,0,0,1.518,86.7a1.953,1.953,0,0,0,3.237.752l8.1-8.16h3.9L21.2,83.742v3.9l-8.161,8.1a1.953,1.953,0,0,0,.752,3.237,19.537,19.537,0,0,0,22.089-7.115A19.313,19.313,0,0,0,38.9,75.405l11.511-11.51,2.637,2.864-1.21,1.209A1.953,1.953,0,0,0,54.6,70.731l1.1-1.1,24.74,26.872c.018.02.037.039.056.058A11.72,11.72,0,0,0,97.069,79.991l-.061-.058L70.093,55.241l1.083-1.083A1.953,1.953,0,0,0,68.413,51.4l-1.2,1.2-2.869-2.634L75.909,38.4A19.542,19.542,0,0,0,99.481,13.294a1.951,1.951,0,0,0-1.408-1.279ZM17.646,19.908a1.933,1.933,0,0,0-1.382-.554l-4.418,0L4.914,7.779,8.281,4.412l11.554,6.934v4.417a1.953,1.953,0,0,0,.571,1.379l24.543,24.6L42.187,44.5Zm49.682,38.1L94.335,82.782A7.814,7.814,0,0,1,83.283,93.83L58.462,66.87Zm-2.881-2.644-8.633,8.631L53.177,61.13l8.4-8.4ZM80.969,35.155a15.61,15.61,0,0,1-4.992-.814,1.957,1.957,0,0,0-2,.47L35.312,73.47a1.953,1.953,0,0,0-.47,2A15.64,15.64,0,0,1,20.031,96.091a16,16,0,0,1-1.7-.092l6.2-6.155a1.952,1.952,0,0,0,.578-1.386V82.933a1.953,1.953,0,0,0-.572-1.381L18.945,75.96a1.953,1.953,0,0,0-1.381-.572H12.039a1.956,1.956,0,0,0-1.387.578L4.5,82.169a15.8,15.8,0,0,1-.092-1.7A15.641,15.641,0,0,1,25.023,65.655a1.952,1.952,0,0,0,2-.47l38.66-38.659a1.953,1.953,0,0,0,.47-2A15.639,15.639,0,0,1,80.968,3.906a15.962,15.962,0,0,1,1.754.1l-6.075,6.165a1.952,1.952,0,0,0-.562,1.37v5.525a1.951,1.951,0,0,0,.548,1.357l5.4,5.592a1.952,1.952,0,0,0,1.405.6h5.525a1.952,1.952,0,0,0,1.386-.578l6.155-6.2A15.637,15.637,0,0,1,80.969,35.155Zm0,0" transform="translate(-0.5 0.001)" fill="#ffb900"/>
  <path id="Path_248" data-name="Path 248" d="M208.937,184,184.5,208.438a1.953,1.953,0,0,0,2.763,2.762L211.7,186.759A1.953,1.953,0,1,0,208.937,184Zm0,0" transform="translate(-148.098 -147.6)" fill="#ffb900"/>
  <path id="Path_249" data-name="Path 249" d="M363.458,365.956a1.953,1.953,0,1,0,2.758-2.766l-17.605-17.548a1.953,1.953,0,0,0-2.758,2.766Zm0,0" transform="translate(-277.937 -277.675)" fill="#ffb900"/>
</svg>
