<svg xmlns="http://www.w3.org/2000/svg" width="205" height="195" viewBox="0 0 205 195">
  <g id="profestional" transform="translate(56 1.039)">
    <g id="Ellipse_16" data-name="Ellipse 16" transform="translate(-56 -1.039)" fill="none" stroke="#ffb900" stroke-width="5">
      <ellipse cx="102.5" cy="97.5" rx="102.5" ry="97.5" stroke="none"/>
      <ellipse cx="102.5" cy="97.5" rx="100" ry="95" fill="none"/>
    </g>
    <g id="Group_7" data-name="Group 7" transform="translate(-3 59.614)">
      <path id="Path_209" data-name="Path 209" d="M86.38,122.28a12.571,12.571,0,0,0,4.861-10.038c0-6.784-5.1-12.271-11.4-12.271s-11.4,5.487-11.4,12.271A12.514,12.514,0,0,0,73.3,122.28a19.5,19.5,0,0,0-6.739,4.253,25.079,25.079,0,0,0-9.249-5.423A15.857,15.857,0,0,0,64.286,107.8c0-8.592-6.462-15.546-14.446-15.546S35.394,99.226,35.394,107.8A15.809,15.809,0,0,0,42.37,121.11a25.285,25.285,0,0,0-9.15,5.359,19.642,19.642,0,0,0-6.66-4.168,12.571,12.571,0,0,0,4.861-10.038c0-6.784-5.1-12.271-11.4-12.271s-11.4,5.487-11.4,12.271A12.514,12.514,0,0,0,13.478,122.3C5.632,125.214,0,133.232,0,142.654v1.4a.088.088,0,0,0,.079.085H24.248a30.752,30.752,0,0,0-.217,3.594v1.446c0,6.253,4.7,11.314,10.513,11.314H65.176c5.81,0,10.513-5.062,10.513-11.314v-1.446a30.751,30.751,0,0,0-.217-3.594H99.8a.088.088,0,0,0,.079-.085v-1.4C99.839,133.211,94.226,125.193,86.38,122.28ZM71.6,112.22c0-4.891,3.7-8.868,8.241-8.868s8.241,3.977,8.241,8.868c0,4.828-3.616,8.762-8.083,8.868h-.316C75.2,121,71.6,117.069,71.6,112.22ZM38.516,107.8c0-6.7,5.059-12.144,11.284-12.144S61.085,101.1,61.085,107.8c0,6.465-4.723,11.761-10.632,12.122h-1.3C43.24,119.557,38.516,114.262,38.516,107.8Zm-26.8,4.424c0-4.891,3.7-8.868,8.241-8.868s8.241,3.977,8.241,8.868c0,4.828-3.616,8.762-8.083,8.868H19.8C15.335,121,11.719,117.069,11.719,112.22Zm13.083,28.5H3.2c.889-9.06,8-16.163,16.64-16.227h.237a16.037,16.037,0,0,1,10.77,4.317A28.608,28.608,0,0,0,24.8,140.718Zm47.686,8.464a7.659,7.659,0,0,1-7.352,7.911H34.5a7.659,7.659,0,0,1-7.352-7.911v-1.446c0-13.207,9.8-24.011,22-24.394.217.021.455.021.672.021s.455,0,.672-.021c12.193.383,22,11.187,22,24.394Zm2.352-8.464a28.539,28.539,0,0,0-5.988-11.825,16.123,16.123,0,0,1,10.869-4.4h.237c8.636.064,15.75,7.167,16.64,16.227Z" transform="translate(0 -92.25)" fill="#ffb900"/>
    </g>
  </g>
</svg>
