<svg xmlns="http://www.w3.org/2000/svg" width="205" height="195" viewBox="0 0 205 195">
  <defs>
    <style>
      .cls-1 {
        fill: #fff;
        stroke: #ffb900;
        stroke-width: 10px;
      }

      .cls-2 {
        fill: #ffb900;
      }

      .cls-3 {
        stroke: none;
      }

      .cls-4 {
        fill: none;
      }
    </style>
  </defs>
  <g id="surface1" transform="translate(69.465 60.654)">
    <g id="Ellipse_15" data-name="Ellipse 15" class="cls-1" transform="translate(-69.465 -60.654)">
      <ellipse class="cls-3" cx="102.5" cy="97.5" rx="102.5" ry="97.5"/>
      <ellipse class="cls-4" cx="102.5" cy="97.5" rx="97.5" ry="92.5"/>
    </g>
    <path id="Path_206" data-name="Path 206" class="cls-2" d="M64.994,20.172l0-.058c-.033-.714-.055-1.47-.069-2.31A7.981,7.981,0,0,0,57.3,10.084C48.512,9.607,41.716,6.82,35.909,1.312l-.05-.046a4.99,4.99,0,0,0-6.646,0l-.05.046C23.356,6.82,16.56,9.607,7.774,10.084A7.98,7.98,0,0,0,.149,17.8c-.013.835-.036,1.59-.069,2.31l0,.134c-.171,8.717-.383,19.565,3.347,29.411A37.342,37.342,0,0,0,12.655,63.65a48.58,48.58,0,0,0,18.066,10.4,5.717,5.717,0,0,0,.74.2,5.617,5.617,0,0,0,2.15,0,5.735,5.735,0,0,0,.743-.2A48.61,48.61,0,0,0,52.4,63.643a37.394,37.394,0,0,0,9.232-13.994C65.376,39.773,65.165,28.9,64.994,20.172ZM57.425,48.14C53.492,58.518,45.461,65.645,32.875,69.928a1.15,1.15,0,0,1-.142.037,1.033,1.033,0,0,1-.394,0,1.14,1.14,0,0,1-.141-.037C19.6,65.653,11.562,58.53,7.631,48.151,4.193,39.075,4.388,29.117,4.56,20.332v-.049c.035-.755.058-1.546.071-2.415A3.547,3.547,0,0,1,8.024,14.44a40.266,40.266,0,0,0,13.353-2.858A35.011,35.011,0,0,0,32.259,4.469a.422.422,0,0,1,.555,0,35.024,35.024,0,0,0,10.881,7.113A40.268,40.268,0,0,0,57.048,14.44a3.547,3.547,0,0,1,3.392,3.428c.013.873.037,1.664.072,2.414C60.683,29.078,60.873,39.044,57.425,48.14Zm0,0" transform="translate(0 0)"/>
    <path id="Path_207" data-name="Path 207" class="cls-2" d="M109.442,128.41c-10.5,0-19.043,8.312-19.043,18.529s8.543,18.529,19.043,18.529,19.043-8.312,19.043-18.529S119.942,128.41,109.442,128.41Zm0,32.695A14.171,14.171,0,1,1,124,146.939,14.383,14.383,0,0,1,109.442,161.1Zm0,0" transform="translate(-76.907 -109.764)"/>
    <path id="Path_208" data-name="Path 208" class="cls-2" d="M168.746,212.631l-8.845,8.606-2.4-2.336a2.286,2.286,0,0,0-3.171,0,2.14,2.14,0,0,0,0,3.085l3.986,3.879a2.286,2.286,0,0,0,3.17,0l10.431-10.149a2.14,2.14,0,0,0,0-3.085A2.285,2.285,0,0,0,168.746,212.631Zm0,0" transform="translate(-130.738 -181.209)"/>
  </g>
</svg>
