<svg id="business-and-finance" xmlns="http://www.w3.org/2000/svg" width="151.844" height="136.521" viewBox="0 0 151.844 136.521">
  <path id="Path_241" data-name="Path 241" d="M149.077,283.352a18.6,18.6,0,0,0,4.07-12.309,19.1,19.1,0,0,0-6.523-13.457l-9.924-8.923a49.908,49.908,0,0,0,1.782-20.7,2.183,2.183,0,0,0-2.456-1.767,2.061,2.061,0,0,0-1.965,2.208,46.241,46.241,0,0,1-1.033,16.96l-3.184-2.862a9.353,9.353,0,0,0-12.231,0,7.244,7.244,0,0,0,0,11l8.357,7.511a53.092,53.092,0,0,1-8.31,9.453c-13.906,12.5-33.883,17.646-52.922,13.825l3.188-2.867a7.234,7.234,0,0,0,0-10.994,9.366,9.366,0,0,0-12.23,0l-8.368,7.523a56.789,56.789,0,0,1-10.546-7.487,52.934,52.934,0,0,1-8.69-10.012,1.384,1.384,0,0,0-.068-.128,49.061,49.061,0,0,1-2.559-4.368,47.813,47.813,0,0,1-2.813-6.525,1.925,1.925,0,0,0-.13-.286,46.441,46.441,0,0,1-2.258-19.7,2.072,2.072,0,0,0-2.015-2.172,2.171,2.171,0,0,0-2.415,1.811,49.978,49.978,0,0,0,2.156,20.392l-9.578,8.612a19.123,19.123,0,0,0-6.522,13.382,18.567,18.567,0,0,0,3.974,12.261l-.222.2a7.4,7.4,0,0,0,0,11.258l4.124,3.708a9.353,9.353,0,0,0,6.259,2.328,9.355,9.355,0,0,0,6.259-2.328l.2-.179a23.917,23.917,0,0,0,12.841,3.676,25.092,25.092,0,0,0,4.115-.341,2.025,2.025,0,0,0,1.783-2.33,2.223,2.223,0,0,0-2.592-1.6,19.463,19.463,0,0,1-12.939-2.285l4.685-4.212a7.749,7.749,0,0,0,2.327-3.682,9.165,9.165,0,0,0,10.768-.867l5.762-5.18.012-.01,9.595-8.626a4.55,4.55,0,0,1,5.943,0,3.513,3.513,0,0,1,0,5.336l-5.931,5.333c-.009.007-.016.015-.024.022L48,293.677a17.781,17.781,0,0,1-1.878,1.472,1.869,1.869,0,0,0-.432,2.8,2.314,2.314,0,0,0,1.775.794,2.381,2.381,0,0,0,1.34-.405,21.9,21.9,0,0,0,2.34-1.833l9.92-8.917a68.267,68.267,0,0,0,33.2-.231l9.619,8.652a23.5,23.5,0,0,0,14.885,5.862q.454.017.9.017a24,24,0,0,0,12.733-3.59l.225.2a9.582,9.582,0,0,0,12.519,0l4.124-3.708a7.4,7.4,0,0,0,0-11.257ZM6.335,271.627a15.314,15.314,0,0,1,5.222-10.715l8-7.193a52.67,52.67,0,0,0,3.763,7.3l-4.416,3.97a7.162,7.162,0,0,0-2.47,5.36,7,7,0,0,0,1.42,4.215,9.1,9.1,0,0,0-4.123,2.093l-4.662,4.191a14.8,14.8,0,0,1-2.736-9.216Zm20.9,17.163L20.766,294.6s0,0,0,0l-1.624,1.46a4.768,4.768,0,0,1-6.229,0l-4.124-3.708a3.684,3.684,0,0,1,0-5.6l1.591-1.43a.2.2,0,0,0,.016-.015l6.485-5.83a4.764,4.764,0,0,1,6.215-.01l3.94,3.54.2.178a3.686,3.686,0,0,1,0,5.6Zm13.1-4.549a4.3,4.3,0,0,1-5.633,0l-4.3-3.861s-.022-.019-.022-.02l-1.921-1.727-2.2-1.98-.015-.012-4.187-3.763a3.329,3.329,0,0,1,0-5.064l3.65-3.282a57.18,57.18,0,0,0,6.885,7.782l-1.143,1.028a1.86,1.86,0,0,0,0,2.828,2.407,2.407,0,0,0,3.146,0l1.18-1.061a61.5,61.5,0,0,0,8.335,5.738Zm80.433-38.915a4.546,4.546,0,0,1,5.938,0l16.779,15.088a14.951,14.951,0,0,1,2.393,20.055l-4.685-4.212a9.106,9.106,0,0,0-4.1-2.086,7.012,7.012,0,0,0,1.508-4.327,7.167,7.167,0,0,0-2.47-5.36l-15.371-13.817a3.518,3.518,0,0,1,0-5.341ZM119.7,274.259l1.158,1.042a2.405,2.405,0,0,0,3.146,0,1.861,1.861,0,0,0,0-2.828l-1.2-1.077a56.79,56.79,0,0,0,6.389-7.49l3.792,3.408a3.331,3.331,0,0,1,0,5.064l-4.306,3.872-.012.009-4.124,3.708a.1.1,0,0,0-.012.01l-4.189,3.768a4.315,4.315,0,0,1-5.635,0l-3.676-3.306a61.071,61.071,0,0,0,8.667-6.179Zm-.748,23.616a18.82,18.82,0,0,1-11.917-4.695l-8.025-7.216c1.49-.5,2.96-1.06,4.4-1.666,1.249-.524,2.5-1.1,3.727-1.708l4.43,3.982a9.169,9.169,0,0,0,10.645.944,7.752,7.752,0,0,0,2.334,3.708l4.659,4.188a19.382,19.382,0,0,1-10.251,2.462Zm27.183-5.913-4.125,3.708a4.765,4.765,0,0,1-6.228,0l-8.091-7.275a3.682,3.682,0,0,1-.006-5.595l4.136-3.719a4.767,4.767,0,0,1,6.222,0l6.5,5.848a0,0,0,0,1,0,0l1.586,1.425a3.684,3.684,0,0,1,0,5.6Zm0,0" transform="translate(-1.318 -165.869)"/>
  <path id="Path_242" data-name="Path 242" d="M23.321,59.873a9.35,9.35,0,0,0,12.229,0,7.244,7.244,0,0,0,0-11l-8.394-7.547a52.707,52.707,0,0,1,7.666-8.859A2.336,2.336,0,0,0,35,32.325a2.077,2.077,0,0,0,.2-.209l.263-.24a57.005,57.005,0,0,1,11-7.732A2.367,2.367,0,0,0,46.794,24c1.582-.841,3.212-1.615,4.851-2.3A60.934,60.934,0,0,1,58.9,19.17a2.325,2.325,0,0,0,.371-.142,63.326,63.326,0,0,1,29.2-.961l-3.224,2.9a7.227,7.227,0,0,0,0,10.993,9.356,9.356,0,0,0,12.227,0l8.384-7.537a56.761,56.761,0,0,1,10.482,7.454A52.771,52.771,0,0,1,125.5,42.6a71.439,71.439,0,0,1,4.962,10.138,1.825,1.825,0,0,0,.151.43.025.025,0,0,1,0,.007c.447,1.328,1.332,1.186,2.031,1.186h0a2.356,2.356,0,0,0,1.571-.585L144.763,44.3a19.12,19.12,0,0,0,6.521-13.383,18.569,18.569,0,0,0-3.974-12.261l.222-.2a7.406,7.406,0,0,0,0-11.257l-4.124-3.708a9.582,9.582,0,0,0-12.52,0l-.2.179A24.04,24.04,0,0,0,117,.012a23.5,23.5,0,0,0-14.969,5.866l-9.884,8.887a68.25,68.25,0,0,0-33.3.206l-9.57-8.607A23.5,23.5,0,0,0,34.389.5,24.073,24.073,0,0,0,20.752,4.076l-.222-.2a9.584,9.584,0,0,0-12.52,0L3.887,7.583a7.4,7.4,0,0,0,0,11.257l.2.18A18.606,18.606,0,0,0,.016,31.33,19.106,19.106,0,0,0,6.539,44.787ZM122.706,21.94c.03.027.06.056.092.083l8.326,7.483a3.33,3.33,0,0,1,0,5.065l-3.657,3.288a57.181,57.181,0,0,0-6.877-7.789l1.143-1.027a1.86,1.86,0,0,0,0-2.828,2.4,2.4,0,0,0-3.145,0l-1.176,1.057a61.437,61.437,0,0,0-8.327-5.748l3.763-3.383a4.314,4.314,0,0,1,5.636,0Zm24.135,8.817a15.305,15.305,0,0,1-5.221,10.714l-8.061,7.244a68.484,68.484,0,0,0-3.728-7.325l4.437-3.99a7.161,7.161,0,0,0,2.471-5.36,7,7,0,0,0-1.42-4.215,9.1,9.1,0,0,0,4.124-2.094l4.661-4.19a14.8,14.8,0,0,1,2.737,9.216Zm-9.691-25.6a4.654,4.654,0,0,1,3.114,1.158l4.125,3.708a3.686,3.686,0,0,1,0,5.6l-1.618,1.455a.146.146,0,0,0-.014.012L136.3,22.9a4.767,4.767,0,0,1-6.228,0l-4.124-3.708a3.688,3.688,0,0,1,0-5.6l8.092-7.275a4.649,4.649,0,0,1,3.114-1.158ZM105.174,8.706a19.513,19.513,0,0,1,22.31-2.152L122.8,10.766a7.742,7.742,0,0,0-2.322,3.684,9.168,9.168,0,0,0-10.775.864L94.333,29.131a4.546,4.546,0,0,1-5.94,0,3.509,3.509,0,0,1,0-5.337ZM20.18,35.06a3.331,3.331,0,0,1,0-5.064L32.824,18.629a4.311,4.311,0,0,1,5.634,0l3.633,3.265a61.459,61.459,0,0,0-8.662,6.186l-1.123-1.009a2.406,2.406,0,0,0-3.145,0,1.863,1.863,0,0,0,0,2.829l1.156,1.038a56.536,56.536,0,0,0-6.386,7.493ZM34.212,4.5A18.812,18.812,0,0,1,46.13,9.193l7.991,7.186a64.945,64.945,0,0,0-8.116,3.379L41.6,15.8a9.167,9.167,0,0,0-10.646-.942,7.744,7.744,0,0,0-2.335-3.709L23.96,6.96A19.354,19.354,0,0,1,34.212,4.5ZM7.032,10.411,11.156,6.7a4.77,4.77,0,0,1,6.229,0L19,8.153l.024.021,6.456,5.8a3.686,3.686,0,0,1,0,5.6l-4.125,3.708a4.767,4.767,0,0,1-6.229,0L7.032,16.012a3.684,3.684,0,0,1,0-5.6ZM7.293,21.9l4.684,4.211a9.1,9.1,0,0,0,4.1,2.087,7.01,7.01,0,0,0-1.508,4.326,7.169,7.169,0,0,0,2.47,5.36L32.4,51.705a3.518,3.518,0,0,1,0,5.341,4.543,4.543,0,0,1-5.936,0L9.685,41.958A14.946,14.946,0,0,1,7.294,21.9Zm0,0" transform="translate(-0.001 0.001)"/>
  <path id="Path_243" data-name="Path 243" d="M125.734,279.808l-10.916,8.7a3.5,3.5,0,0,0-.356,5.3l6.015,6.1a.162.162,0,0,1,.019.021l.016.014,5.769,5.852a4.382,4.382,0,0,0,3.126,1.261,4.437,4.437,0,0,0,2.766-.943l10.916-8.7a3.5,3.5,0,0,0,.356-5.3l-11.818-11.986a4.514,4.514,0,0,0-5.893-.319Zm2.746,3.156,4.289,4.349-10.44,8.443-4.356-4.419Zm.948,19.992-4.147-4.207,10.439-8.442,4.216,4.275Zm0,0" transform="translate(-79.779 -204.504)"/>
  <path id="Path_244" data-name="Path 244" d="M297.441,130.727l-15.659,12.479A3.9,3.9,0,0,0,280.27,146a3.789,3.789,0,0,0,1.128,2.936l11.367,11.529a4.693,4.693,0,0,0,3.107,1.359c.093.005.185.007.277.007a4.78,4.78,0,0,0,2.989-1.022L314.8,148.33a3.9,3.9,0,0,0,1.512-2.794,3.786,3.786,0,0,0-1.128-2.937l-11.366-11.528a4.883,4.883,0,0,0-6.374-.345ZM311.869,145.3a.046.046,0,0,1-.022.041h0l-15.659,12.479a.052.052,0,0,1-.048.016.064.064,0,0,1-.046-.02l-11.366-11.529a.051.051,0,0,1-.017-.043.057.057,0,0,1,.022-.042l15.659-12.479a.071.071,0,0,1,.044-.016.066.066,0,0,1,.05.02l11.367,11.529A.047.047,0,0,1,311.869,145.3Zm0,0" transform="translate(-197.145 -95.12)"/>
</svg>
