<svg id="repair" xmlns="http://www.w3.org/2000/svg" width="142.474" height="131.158" viewBox="0 0 142.474 131.158">
  <defs>
    <style>
      .cls-1 {
        fill: #ffb900;
      }
    </style>
  </defs>
  <path id="Path_245" data-name="Path 245" class="cls-1" d="M340.123,155.148a2.57,2.57,0,1,0,2.783,2.561A2.678,2.678,0,0,0,340.123,155.148Zm0,0" transform="translate(-243.605 -115.404)"/>
  <path id="Path_246" data-name="Path 246" class="cls-1" d="M158.428,336.84a2.57,2.57,0,1,0,2.783,2.562A2.678,2.678,0,0,0,158.428,336.84Zm0,0" transform="translate(-112.472 -250.552)"/>
  <path id="Path_247" data-name="Path 247" class="cls-1" d="M139.516,15.759a2.943,2.943,0,0,0-2.6.69l-11.537,10.7h-5.531l-6.088-5.807V16.184L125.127,5.56a2.425,2.425,0,0,0,.724-2.392,2.652,2.652,0,0,0-1.818-1.833A29.944,29.944,0,0,0,115.147,0,28.32,28.32,0,0,0,92.555,10.673a23.7,23.7,0,0,0-4.294,21.58l-20.5,18.869L33.614,19.614V13.43a2.527,2.527,0,0,0-1.351-2.2L12.586.365a2.963,2.963,0,0,0-3.4.385L1.317,7.994A2.413,2.413,0,0,0,.9,11.124L12.7,29.236a2.84,2.84,0,0,0,2.385,1.244l6.716,0L55.957,61.991l-20.42,18.8a29.461,29.461,0,0,0-23.45,3.959C4.723,89.617.5,97.195.5,105.538a23.707,23.707,0,0,0,1.451,8.179,2.708,2.708,0,0,0,2.007,1.677,2.945,2.945,0,0,0,2.606-.69L18.1,104H23.66L30,109.834v5.119L18.369,125.572a2.429,2.429,0,0,0-.75,2.4,2.65,2.65,0,0,0,1.822,1.847,29.937,29.937,0,0,0,8.885,1.336,28.313,28.313,0,0,0,22.586-10.668,23.714,23.714,0,0,0,4.3-21.586l16.4-15.1,3.757,3.756-1.724,1.586a2.421,2.421,0,0,0,0,3.623,2.958,2.958,0,0,0,3.936,0l1.561-1.437,35.248,35.245c.026.026.053.051.08.076a17.728,17.728,0,0,0,23.614,0,14.543,14.543,0,0,0,0-21.737c-.028-.026-.058-.051-.087-.076L99.651,72.454l1.544-1.421a2.419,2.419,0,0,0,0-3.622,2.956,2.956,0,0,0-3.936,0l-1.712,1.577-4.088-3.454,16.479-15.17a30.153,30.153,0,0,0,7.209.869c15.344,0,27.827-11.492,27.827-25.616a23.713,23.713,0,0,0-1.451-8.18,2.708,2.708,0,0,0-2.007-1.677ZM24.929,26.111a2.884,2.884,0,0,0-1.969-.726l-6.294,0L6.79,10.2l4.8-4.416,16.462,9.094v5.794a2.462,2.462,0,0,0,.813,1.809L63.829,54.746l-3.936,3.622ZM95.712,76.08l38.477,32.494a9.7,9.7,0,0,1-.04,14.456,11.823,11.823,0,0,1-15.705.035L83.081,87.706Zm-4.1-3.467-12.3,11.32-3.757-3.756L87.519,69.159Zm23.539-26.5a23.992,23.992,0,0,1-7.112-1.068,2.961,2.961,0,0,0-2.856.616C91.228,58.5,61.168,86.171,50.1,96.361a2.419,2.419,0,0,0-.67,2.63A18.965,18.965,0,0,1,46.392,117.5a22.647,22.647,0,0,1-18.065,8.534q-1.221,0-2.426-.12l8.839-8.073a2.463,2.463,0,0,0,.823-1.818v-7.247a2.463,2.463,0,0,0-.815-1.811L26.78,99.628a2.909,2.909,0,0,0-1.968-.75H16.94a2.912,2.912,0,0,0-1.976.757l-8.769,8.136a19.094,19.094,0,0,1-.13-2.233,19.807,19.807,0,0,1,9.27-16.63,23.615,23.615,0,0,1,20.1-2.8,2.953,2.953,0,0,0,2.856-.616c.153-.14,55.041-50.668,55.081-50.7a2.419,2.419,0,0,0,.67-2.629,18.956,18.956,0,0,1,3.031-18.5,22.651,22.651,0,0,1,18.071-8.54,24.684,24.684,0,0,1,2.5.127l-8.655,8.086a2.459,2.459,0,0,0-.8,1.8V22.38a2.456,2.456,0,0,0,.78,1.779l7.688,7.334a2.9,2.9,0,0,0,2,.783h7.872a2.906,2.906,0,0,0,1.975-.757l8.769-8.135a19.094,19.094,0,0,1,.13,2.233c0,11.3-9.986,20.492-22.261,20.492Zm0,0" transform="translate(-0.5 0.001)"/>
  <path id="Path_248" data-name="Path 248" class="cls-1" d="M219.562,184.176l-34.823,32.056a2.421,2.421,0,0,0,0,3.622,2.956,2.956,0,0,0,3.936,0L223.5,187.8a2.419,2.419,0,0,0,0-3.622A2.956,2.956,0,0,0,219.562,184.176Zm0,0" transform="translate(-132.881 -136.438)"/>
  <path id="Path_249" data-name="Path 249" class="cls-1" d="M371.18,372.463a2.956,2.956,0,0,0,3.936-.006,2.42,2.42,0,0,0-.007-3.622l-25.083-23.016a2.955,2.955,0,0,0-3.935.006,2.42,2.42,0,0,0,.005,3.622Zm0,0" transform="translate(-249.335 -256.675)"/>
</svg>
