<svg xmlns="http://www.w3.org/2000/svg" width="205" height="195" viewBox="0 0 205 195">
  <defs>
    <style>
      .cls-1 {
        fill: #fff;
        stroke: #ffb900;
        stroke-width: 10px;
      }

      .cls-2 {
        fill: #ffb900;
      }

      .cls-3 {
        stroke: none;
      }

      .cls-4 {
        fill: none;
      }
    </style>
  </defs>
  <g id="piggy-bank" transform="translate(59 55.52)">
    <g id="Ellipse_14" data-name="Ellipse 14" class="cls-1" transform="translate(-59 -55.52)">
      <ellipse class="cls-3" cx="102.5" cy="97.5" rx="102.5" ry="97.5"/>
      <ellipse class="cls-4" cx="102.5" cy="97.5" rx="97.5" ry="92.5"/>
    </g>
    <g id="Group_2" data-name="Group 2" transform="translate(65.029 44.87)">
      <g id="Group_1" data-name="Group 1">
        <path id="Path_203" data-name="Path 203" class="cls-2" d="M388.269,270.613A1.2,1.2,0,0,0,387,271.729a1.628,1.628,0,0,1-3.228,0,1.282,1.282,0,0,0-2.542,0,4.191,4.191,0,0,0,8.312,0A1.2,1.2,0,0,0,388.269,270.613Z" transform="translate(-381.228 -270.613)"/>
      </g>
    </g>
    <g id="Group_4" data-name="Group 4" transform="translate(0 5.115)">
      <g id="Group_3" data-name="Group 3">
        <path id="Path_204" data-name="Path 204" class="cls-2" d="M84,45.053l-3.577-1.006a1.415,1.415,0,0,1-.966-.859,19.431,19.431,0,0,0-3.382-5.872,22.553,22.553,0,0,0-2.259-2.339,24.441,24.441,0,0,0,.777-6.32c-.053-2.843-.7-4.51-1.978-5.1-.688-.317-2.783-1.279-14.121,3.277a4.28,4.28,0,0,0-.751.393c-.764-.18-1.546-.347-2.332-.5-.095-.018-.192-.034-.288-.052a13.705,13.705,0,0,0,1.556-5.651,1.184,1.184,0,0,0-1.213-1.165,1.217,1.217,0,0,0-1.327,1.065,12.287,12.287,0,0,1-4.322,8.605,15.1,15.1,0,0,1-5.354,3,41.941,41.941,0,0,0-10.231,0,15.1,15.1,0,0,1-5.354-3,12.169,12.169,0,0,1-4.337-9.19,12.169,12.169,0,0,1,4.337-9.19,16.3,16.3,0,0,1,20.939,0,13.2,13.2,0,0,1,2.76,3.346,1.359,1.359,0,0,0,1.707.495,1.056,1.056,0,0,0,.564-1.5,15.462,15.462,0,0,0-3.233-3.92,18.521,18.521,0,0,0-12.267-4.46,18.521,18.521,0,0,0-12.267,4.46A14.259,14.259,0,0,0,22,20.344a14.258,14.258,0,0,0,5.081,10.768,17.169,17.169,0,0,0,3.061,2.141h0q-1.185.27-2.35.61a1.091,1.091,0,0,0-.8,1.412,1.318,1.318,0,0,0,1.608.7,38.629,38.629,0,0,1,21.5,0,1.431,1.431,0,0,0,.4.058,1.27,1.27,0,0,0,1.205-.762,1.091,1.091,0,0,0-.8-1.412q-1.163-.341-2.35-.61h0a17.163,17.163,0,0,0,3.061-2.141,15.871,15.871,0,0,0,2.215-2.387c.35.06.7.122,1.041.188q.685.13,1.361.279c-.014.049-.029.1-.04.146a11.741,11.741,0,0,0,.12,6.788,8.2,8.2,0,0,0,3.371,4.159,11.748,11.748,0,0,0,6.256,1.743,9.349,9.349,0,0,0,4.054-.823,6.919,6.919,0,0,0,2.988-3.725q.549.563,1.041,1.153a17.29,17.29,0,0,1,3.01,5.226,3.823,3.823,0,0,0,2.615,2.315l3.577,1.006a2.021,2.021,0,0,1,1.569,1.888v5.207a2.021,2.021,0,0,1-1.569,1.888l-5.764,1.621a3.866,3.866,0,0,0-2.2,1.567C73,62.783,69.439,65.626,64.681,67.8a1.789,1.789,0,0,0-1.045,1.232l-1.846,8.58a.557.557,0,0,1-.561.408h-6a.557.557,0,0,1-.561-.408l-1.022-4.742a1.989,1.989,0,0,0-2.271-1.41,60.391,60.391,0,0,1-7.918.517,57.65,57.65,0,0,1-5.825-.289,2,2,0,0,0-2.2,1.418l-.972,4.506a.557.557,0,0,1-.561.408h-6a.558.558,0,0,1-.562-.411l-1.777-8.1a1.79,1.79,0,0,0-1.026-1.218c-8.11-3.8-12.4-10.15-12.4-18.362a19.413,19.413,0,0,1,3.073-10.9,21.111,21.111,0,0,1,8.261-7.08,1.045,1.045,0,0,0,.464-1.525,1.372,1.372,0,0,0-1.737-.407C15.254,33.53,11.069,38.966,9.916,45.87h0c-.122-.01-.245-.019-.367-.03a4.961,4.961,0,0,0-.466-2.226,5.065,5.065,0,0,0-3.859-2.959,3.733,3.733,0,0,0-3.308,1.293C.7,43.355.9,44.468,1.281,45.154c.64,1.158,2.286,1.977,5.016,2.492q-.113.148-.248.3A6.571,6.571,0,0,1,1.3,50.15,1.257,1.257,0,0,0,0,51.315v.005a1.25,1.25,0,0,0,1.275,1.165q.137.006.286.006a8.663,8.663,0,0,0,6.477-3.156,6.292,6.292,0,0,0,.928-1.316q.36.036.691.062h0c-.043.6-.067,1.218-.067,1.842a20.9,20.9,0,0,0,3.75,12.313,24.723,24.723,0,0,0,9.766,7.911l1.728,7.879a3.038,3.038,0,0,0,3.059,2.225h6a3.038,3.038,0,0,0,3.059-2.225l.878-4.074c1.824.17,3.713.256,5.623.256a63.485,63.485,0,0,0,7.788-.476l.926,4.3a3.038,3.038,0,0,0,3.059,2.224h6a3.038,3.038,0,0,0,3.059-2.225l1.8-8.354a26.648,26.648,0,0,0,11.378-9.205,1.365,1.365,0,0,1,.773-.559L84,58.286a4.3,4.3,0,0,0,3.336-4.013V49.065A4.3,4.3,0,0,0,84,45.053ZM71.86,31.792c-.489,3.672-1.8,6.814-3.12,7.47a8.7,8.7,0,0,1-7.557-.779c-2.6-1.67-3.467-4.674-2.5-8.686h0a1.4,1.4,0,0,1,.872-.932c6.363-2.557,10.032-3.393,11.395-3.393a1.5,1.5,0,0,1,.461.054C71.817,25.909,72.354,28.086,71.86,31.792ZM3.569,44.18c-.132-.238.179-.657.376-.885a1.052,1.052,0,0,1,.817-.436,1.086,1.086,0,0,1,.128.008,2.658,2.658,0,0,1,1.837,1.579A3.046,3.046,0,0,1,6.992,45.5C5.232,45.179,3.865,44.717,3.569,44.18Z" transform="translate(0 -5.115)"/>
      </g>
    </g>
    <g id="Group_6" data-name="Group 6" transform="translate(34.601 12.279)">
      <g id="Group_5" data-name="Group 5">
        <path id="Path_205" data-name="Path 205" class="cls-2" d="M208.828,59.745V55.752c1.568.1,2.151.728,2.689.728.672,0,.986-.747.986-1.121,0-.964-2.151-1.377-3.675-1.416v-.531c0-.236-.336-.452-.672-.452-.381,0-.65.216-.65.452v.57c-2.129.2-4.257,1.18-4.257,3.659,0,2.518,2.241,3.226,4.257,3.855v4.622c-2.286-.157-2.89-1.534-3.63-1.534a1.193,1.193,0,0,0-1.031,1.121c0,.964,1.882,2.282,4.661,2.321h0v.61c0,.236.269.452.65.452.336,0,.672-.216.672-.452v-.669c2.42-.3,4.078-1.633,4.078-4.052C212.906,61.24,210.777,60.374,208.828,59.745Zm-1.188-.374c-1.188-.393-2.151-.806-2.151-1.927,0-1.023.9-1.515,2.151-1.652Zm1.053,6.707v-4.15c1.1.413,1.972.964,1.972,2.2C210.665,65.252,209.9,65.882,208.693,66.078Z" transform="translate(-202.845 -52.959)"/>
      </g>
    </g>
  </g>
</svg>
