<svg xmlns="http://www.w3.org/2000/svg" width="177.958" height="150.338" viewBox="0 0 177.958 150.338">
  <defs>
    <style>
      .cls-1 {
        fill: #ffb900;
      }
    </style>
  </defs>
  <g id="support" transform="translate(0 0)">
    <path id="Path_252" data-name="Path 252" class="cls-1" d="M31.3,116.261a16.655,16.655,0,0,0-7.011,1.512C13.095,105.652,6.951,90.594,6.951,75.168c0-38.211,36.8-69.3,82.027-69.3a97.35,97.35,0,0,1,16.336,1.374,3.5,3.5,0,0,0,4.095-2.3,2.992,2.992,0,0,0-2.718-3.46A105.587,105.587,0,0,0,88.978,0C65.212,0,42.867,7.818,26.061,22.016S0,55.09,0,75.168c0,16.889,6.789,33.371,19.148,46.585a10.944,10.944,0,0,0-2.447,6.841,11.374,11.374,0,0,0,4.277,8.719A15.948,15.948,0,0,0,31.3,140.926a15.954,15.954,0,0,0,10.323-3.613,11.03,11.03,0,0,0,0-17.44A15.953,15.953,0,0,0,31.3,116.261Zm5.406,16.9a8.669,8.669,0,0,1-10.813,0,5.777,5.777,0,0,1,0-9.136,8.673,8.673,0,0,1,10.813,0,5.777,5.777,0,0,1,0,9.136Zm0,0"/>
    <path id="Path_253" data-name="Path 253" class="cls-1" d="M287.65,51.22c3.779-4.789,3.172-11.336-1.826-15.558a16.557,16.557,0,0,0-20.645,0,11.031,11.031,0,0,0,0,17.441A15.953,15.953,0,0,0,275.5,56.715a16.655,16.655,0,0,0,7.011-1.512c11.193,12.123,17.337,27.179,17.337,42.6,0,38.211-36.8,69.3-82.027,69.3a97.334,97.334,0,0,1-16.18-1.348,3.5,3.5,0,0,0-4.091,2.3,2.994,2.994,0,0,0,2.726,3.456,105.669,105.669,0,0,0,17.544,1.461c23.767,0,46.112-7.819,62.918-22.016S306.8,117.886,306.8,97.808c0-16.89-6.79-33.374-19.15-46.588ZM270.1,48.952a5.777,5.777,0,0,1,0-9.136,8.67,8.67,0,0,1,10.814,0,5.785,5.785,0,0,1,0,9.136,8.675,8.675,0,0,1-10.814,0Zm0,0" transform="translate(-128.844 -22.64)"/>
    <path id="Path_254" data-name="Path 254" class="cls-1" d="M122.9,177.944a3.241,3.241,0,0,0,3.476,2.936h21.733a3.24,3.24,0,0,0,3.476-2.936v-5.692a60.357,60.357,0,0,0,13.045-4.567l4.757,4.019a3.94,3.94,0,0,0,4.916,0l15.361-12.986a2.627,2.627,0,0,0,0-4.152l-4.752-4.014a42.363,42.363,0,0,0,5.406-11.02h6.713a3.24,3.24,0,0,0,3.476-2.936v-18.36a3.24,3.24,0,0,0-3.476-2.936h-6.714a42.369,42.369,0,0,0-5.405-11.019l4.726-3.993a2.627,2.627,0,0,0,0-4.154L174.268,83.154a3.942,3.942,0,0,0-4.915,0l-4.719,3.988a60.355,60.355,0,0,0-13.045-4.567v-5.64A3.24,3.24,0,0,0,148.113,74H126.381a3.241,3.241,0,0,0-3.476,2.936v5.641a60.305,60.305,0,0,0-13.043,4.566l-4.721-3.988a3.943,3.943,0,0,0-4.915,0L84.854,96.132a2.626,2.626,0,0,0,0,4.153l4.726,3.993A42.356,42.356,0,0,0,84.172,115.3h-6.7A3.24,3.24,0,0,0,74,118.232l-.012,18.36A2.723,2.723,0,0,0,75,138.669a3.825,3.825,0,0,0,2.459.86h6.713a42.362,42.362,0,0,0,5.406,11.02l-4.752,4.014a2.626,2.626,0,0,0,0,4.152L100.188,171.7a3.825,3.825,0,0,0,2.457.861h0a3.824,3.824,0,0,0,2.457-.86l4.756-4.019a60.407,60.407,0,0,0,13.045,4.567Zm-11.682-16.435a3.967,3.967,0,0,0-4.345.39l-4.232,3.575L92.2,156.641l4.228-3.573a2.6,2.6,0,0,0,.462-3.669,37.061,37.061,0,0,1-6.584-13.423,3.4,3.4,0,0,0-3.4-2.319h-5.97l.008-12.487h5.962a3.393,3.393,0,0,0,3.4-2.319,37.064,37.064,0,0,1,6.584-13.422,2.6,2.6,0,0,0-.462-3.669l-4.2-3.55,10.456-8.826,4.2,3.546a3.969,3.969,0,0,0,4.345.39,52.686,52.686,0,0,1,15.888-5.562,3.1,3.1,0,0,0,2.745-2.871V79.873h14.781v5.013a3.1,3.1,0,0,0,2.745,2.871,52.729,52.729,0,0,1,15.888,5.562,3.963,3.963,0,0,0,4.343-.39l4.2-3.545,10.456,8.826-4.2,3.549a2.6,2.6,0,0,0-.462,3.67,37.086,37.086,0,0,1,6.584,13.422,3.392,3.392,0,0,0,3.4,2.319h5.973v12.487h-5.973a3.4,3.4,0,0,0-3.4,2.319,37.055,37.055,0,0,1-6.584,13.422,2.605,2.605,0,0,0,.462,3.67l4.228,3.572-10.448,8.833-4.232-3.574a3.965,3.965,0,0,0-4.345-.39,52.743,52.743,0,0,1-15.888,5.562,3.1,3.1,0,0,0-2.745,2.871v5.066H129.856v-5.066a3.1,3.1,0,0,0-2.745-2.871,52.711,52.711,0,0,1-15.888-5.562Zm0,0" transform="translate(-48.27 -52.272)"/>
    <path id="Path_255" data-name="Path 255" class="cls-1" d="M230.81,197.633c0-13.378-12.883-24.262-28.72-24.262s-28.72,10.884-28.72,24.262,12.883,24.262,28.72,24.262S230.81,211.012,230.81,197.633Zm-50.488,0c0-10.141,9.765-18.39,21.768-18.39s21.768,8.25,21.768,18.39-9.765,18.39-21.768,18.39S180.323,207.774,180.323,197.633Zm0,0" transform="translate(-113.112 -122.465)"/>
    <path id="Path_256" data-name="Path 256" class="cls-1" d="M341.554,23.685a3.852,3.852,0,0,0,2.457-.86,2.629,2.629,0,0,0,0-4.156,3.938,3.938,0,0,0-4.914,0,2.627,2.627,0,0,0,0,4.156A3.843,3.843,0,0,0,341.554,23.685Zm0,0" transform="translate(-220.572 -12.58)"/>
    <path id="Path_257" data-name="Path 257" class="cls-1" d="M157.835,474.359a3.855,3.855,0,0,0-2.457.86,2.625,2.625,0,0,0,0,4.152,3.94,3.94,0,0,0,4.915,0,2.625,2.625,0,0,0,0-4.152A3.855,3.855,0,0,0,157.835,474.359Zm0,0" transform="translate(-100.708 -335.074)"/>
  </g>
</svg>
