<svg id="sketch" xmlns="http://www.w3.org/2000/svg" width="100" height="100" viewBox="0 0 100 100">
  <g id="Group_53" data-name="Group 53" transform="translate(70.414 70.525)">
    <g id="Group_52" data-name="Group 52">
      <path id="Path_250" data-name="Path 250" d="M378.587,360.861a1.464,1.464,0,0,0-1.6.319l-16.04,16.092a1.473,1.473,0,0,0,1.038,2.514h16.04a1.47,1.47,0,0,0,1.468-1.472V362.222A1.473,1.473,0,0,0,378.587,360.861Zm-13.059,15.98,11.029-11.065v11.065Z" transform="translate(-360.517 -360.749)" fill="#ffb900"/>
    </g>
  </g>
  <g id="Group_55" data-name="Group 55" transform="translate(0 0)">
    <g id="Group_54" data-name="Group 54" transform="translate(0 0)">
      <path id="Path_251" data-name="Path 251" d="M99.094,47.855a1.464,1.464,0,0,0-1.6.319l-4.4,4.41V22.6a1.47,1.47,0,0,0-1.468-1.472H80.353l4.094-4.107,0,0,3.945-3.957a4.5,4.5,0,0,0,0-6.35L83.832,2.135a4.466,4.466,0,0,0-6.329,0L73.556,6.094l-4.769,4.784L58.572,21.126H13.012V6.559a1.47,1.47,0,0,0-1.468-1.472A11.576,11.576,0,0,0,0,16.668V79.21a1.48,1.48,0,0,0,.035.316A11.132,11.132,0,0,0,11.119,89.832H55.97l-8.447,8.474a1.473,1.473,0,0,0,1.038,2.514H98.532A1.47,1.47,0,0,0,100,99.348V49.215A1.473,1.473,0,0,0,99.094,47.855ZM79.579,4.217a1.538,1.538,0,0,1,2.178,0l4.562,4.576a1.55,1.55,0,0,1,0,2.185L83.409,13.9,76.67,7.135Zm-4.985,5,6.739,6.761-2.693,2.7L71.9,11.92ZM97.065,65.761H94.357a1.473,1.473,0,0,0,0,2.945h2.708v4.437H94.357a1.473,1.473,0,0,0,0,2.945h2.708v4.437H94.357a1.473,1.473,0,0,0,0,2.945h2.708v4.437H94.357a1.473,1.473,0,0,0,0,2.945h2.708v7.023H52.1L66.93,83a1.47,1.47,0,1,0-2.076-2.082l-5.948,5.968H11.119a8.149,8.149,0,0,1-8.176-7.944q.013-.42.065-.832v0q.025-.2.059-.389l.008-.044q.031-.173.069-.343c.007-.032.014-.063.022-.1q.033-.145.072-.288c.014-.052.029-.1.044-.154.021-.075.044-.15.067-.223s.049-.147.074-.22c.018-.051.035-.1.054-.153.036-.1.074-.192.113-.286l.034-.082c.05-.118.1-.234.157-.349l.007-.015a8.645,8.645,0,0,1,6.006-4.712l.022,0c.121-.025.244-.046.368-.066l.062-.011c.112-.017.224-.03.337-.043l.095-.012c.109-.011.219-.018.328-.025l.1-.008q.216-.011.434-.011A1.47,1.47,0,0,0,13.012,69.1V58.424a1.468,1.468,0,1,0-2.936,0v9.3a11.449,11.449,0,0,0-6.593,3.2c-.191.187-.372.381-.548.579V16.668a8.643,8.643,0,0,1,7.141-8.511V52.534h0a1.468,1.468,0,1,0,2.936,0h0V24.072H55.637l-8.114,8.14A1.47,1.47,0,0,0,49.6,34.294L60.218,23.64h0L69.825,14l6.739,6.761-.791.793,0,0-29.6,29.691-6.739-6.761,5.834-5.852A1.47,1.47,0,0,0,43.2,36.553l-6.872,6.894a1.474,1.474,0,0,0-.1.116c-.011.013-.02.028-.03.042s-.041.055-.06.084-.021.034-.031.052-.032.055-.046.084-.018.037-.026.056-.025.058-.036.088c0,.01-.009.02-.013.031l-2.86,8.127-1.95,5.541a1.492,1.492,0,0,0-.058.224H26.229a1.473,1.473,0,0,0,0,2.945H66.876a1.473,1.473,0,0,0,0-2.945H37.713l8.951-3.17.022-.009c.035-.013.069-.027.1-.043l.04-.019c.035-.018.07-.037.1-.058l.033-.02c.035-.023.07-.048.1-.074l.025-.019a1.473,1.473,0,0,0,.119-.106l30.2-30.3H90.163V55.529l-21,21.063a1.476,1.476,0,0,0,0,2.082,1.5,1.5,0,0,0,.112.1,1.464,1.464,0,0,0,1.964-.1h0l25.821-25.9ZM43.492,52.72l-4.2,1.489-2.8-2.81,1.484-4.218Z" transform="translate(0 -0.82)" fill="#ffb900"/>
    </g>
  </g>
</svg>
