<svg id="business-and-finance" xmlns="http://www.w3.org/2000/svg" width="100" height="100" viewBox="0 0 100 100">
  <path id="Path_241" data-name="Path 241" d="M98.817,268.059A14.7,14.7,0,0,0,97.2,249.186l-6.535-6.536a40.49,40.49,0,0,0,1.173-15.166,1.465,1.465,0,1,0-2.911.324,37.571,37.571,0,0,1-.681,12.423l-2.1-2.1a5.7,5.7,0,1,0-8.054,8.055l5.5,5.5a37.719,37.719,0,0,1-40.325,17.051l2.1-2.1a5.7,5.7,0,0,0-8.055-8.053l-5.511,5.51a37.946,37.946,0,0,1-12.668-12.818c-.015-.031-.027-.064-.045-.094-.62-1.051-1.186-2.126-1.685-3.2a37.206,37.206,0,0,1-1.852-4.779,1.493,1.493,0,0,0-.085-.21,37.613,37.613,0,0,1-1.487-14.43,1.465,1.465,0,1,0-2.917-.264,40.507,40.507,0,0,0,1.42,14.937L6.18,249.55A14.7,14.7,0,0,0,4.5,268.333l-.146.146a5.83,5.83,0,0,0,0,8.246l2.716,2.716a5.835,5.835,0,0,0,8.244,0l.131-.131A14.6,14.6,0,0,0,23.9,282a14.9,14.9,0,0,0,2.71-.249,1.465,1.465,0,0,0-.533-2.881,11.724,11.724,0,0,1-8.521-1.674l3.085-3.085a5.793,5.793,0,0,0,1.533-2.7,5.561,5.561,0,0,0,7.092-.635l3.795-3.794.008-.008,6.319-6.318a2.772,2.772,0,0,1,3.914,0,2.766,2.766,0,0,1,0,3.909L39.4,268.477l-.016.016-7.129,7.129a11.988,11.988,0,0,1-1.237,1.078,1.465,1.465,0,1,0,1.767,2.336,14.761,14.761,0,0,0,1.541-1.343l6.533-6.532a40.566,40.566,0,0,0,21.866-.169l6.335,6.337a14.657,14.657,0,0,0,9.8,4.294q.3.013.6.012a14.64,14.64,0,0,0,8.385-2.63l.148.148a5.837,5.837,0,0,0,8.244,0l2.716-2.716a5.829,5.829,0,0,0,0-8.246ZM4.811,259.47a11.737,11.737,0,0,1,3.439-7.849l5.27-5.269A40.34,40.34,0,0,0,16,251.7L13.09,254.6a5.557,5.557,0,0,0-.691,7.014,5.8,5.8,0,0,0-2.715,1.533l-3.07,3.07a11.727,11.727,0,0,1-1.8-6.751Zm13.762,12.572L14.315,276.3l0,0-1.07,1.07a2.9,2.9,0,0,1-4.1,0l-2.716-2.716a2.9,2.9,0,0,1,0-4.1L7.473,269.5l.011-.011,4.271-4.27a2.9,2.9,0,0,1,4.093-.008l2.595,2.593.13.13a2.9,2.9,0,0,1,0,4.1ZM27.2,268.71a2.621,2.621,0,0,1-3.709,0l-2.829-2.828-.014-.014L19.38,264.6l-1.451-1.45-.01-.009-2.757-2.757a2.621,2.621,0,0,1,0-3.71l2.4-2.4a40.831,40.831,0,0,0,4.534,5.7l-.753.753a1.465,1.465,0,0,0,2.072,2.071l.777-.777a40.662,40.662,0,0,0,5.489,4.2Zm52.971-28.5a2.769,2.769,0,0,1,3.911,0l11.05,11.052a11.834,11.834,0,0,1,1.576,14.69l-3.085-3.085a5.8,5.8,0,0,0-2.7-1.528,5.552,5.552,0,0,0-.633-7.1L80.168,244.117a2.77,2.77,0,0,1,0-3.913Zm-.7,21.193.763.763a1.465,1.465,0,0,0,2.071-2.072l-.789-.789a40.778,40.778,0,0,0,4.208-5.487l2.5,2.5a2.623,2.623,0,0,1,0,3.71l-2.836,2.836-.008.007-2.716,2.716-.008.008-2.759,2.76a2.628,2.628,0,0,1-3.711,0l-2.421-2.422a40.585,40.585,0,0,0,5.708-4.526Zm-.493,17.3a11.738,11.738,0,0,1-7.848-3.439l-5.285-5.286c.981-.369,1.949-.777,2.9-1.22.822-.384,1.645-.8,2.454-1.251l2.917,2.917a5.562,5.562,0,0,0,7.011.691,5.8,5.8,0,0,0,1.537,2.716l3.069,3.068a11.746,11.746,0,0,1-6.751,1.8Zm17.9-4.331-2.717,2.716a2.9,2.9,0,0,1-4.1,0l-5.328-5.329a2.9,2.9,0,0,1,0-4.1l2.724-2.724a2.9,2.9,0,0,1,4.1,0l4.283,4.283,0,0,1.044,1.044a2.9,2.9,0,0,1,0,4.1Zm0,0" transform="translate(-1.507 -182.003)" fill="#ffb900"/>
  <path id="Path_242" data-name="Path 242" d="M15.359,43.856A5.695,5.695,0,0,0,23.412,35.8l-5.528-5.528a37.763,37.763,0,0,1,5.048-6.489,1.58,1.58,0,0,0,.121-.108,1.467,1.467,0,0,0,.131-.153l.173-.175A37.81,37.81,0,0,1,30.6,17.685a1.482,1.482,0,0,0,.219-.106c1.042-.616,2.116-1.183,3.194-1.685a37.483,37.483,0,0,1,4.781-1.852,1.44,1.44,0,0,0,.244-.1,37.63,37.63,0,0,1,19.229-.7l-2.123,2.123A5.694,5.694,0,1,0,64.2,23.409l5.521-5.521A37.962,37.962,0,0,1,82.65,31.205a54.949,54.949,0,0,1,3.268,7.426,1.439,1.439,0,0,0,.1.315.02.02,0,0,1,0,.005c.294.973.877.869,1.337.869h0a1.464,1.464,0,0,0,1.035-.429l6.945-6.943a14.7,14.7,0,0,0,1.678-18.784l.146-.146a5.831,5.831,0,0,0,0-8.246L94.445,2.557a5.837,5.837,0,0,0-8.245,0l-.131.131A14.706,14.706,0,0,0,67.193,4.306l-6.509,6.51a40.557,40.557,0,0,0-21.93.151l-6.3-6.3A14.7,14.7,0,0,0,13.667,2.985l-.146-.147a5.838,5.838,0,0,0-8.245,0L2.56,5.554a5.829,5.829,0,0,0,0,8.246l.132.132A14.7,14.7,0,0,0,4.307,32.805ZM80.811,16.07c.02.02.04.041.06.061l5.483,5.481a2.622,2.622,0,0,1,0,3.71l-2.409,2.409a40.843,40.843,0,0,0-4.529-5.706l.753-.752A1.465,1.465,0,0,0,78.1,19.2l-.774.774a40.636,40.636,0,0,0-5.484-4.21l2.478-2.478a2.628,2.628,0,0,1,3.712,0Zm15.894,6.459a11.731,11.731,0,0,1-3.439,7.848l-5.309,5.307A52.5,52.5,0,0,0,85.5,30.318L88.425,27.4a5.556,5.556,0,0,0,.692-7.014,5.794,5.794,0,0,0,2.716-1.534L94.9,15.778a11.724,11.724,0,0,1,1.8,6.751ZM90.323,3.78a2.891,2.891,0,0,1,2.051.848l2.717,2.716a2.9,2.9,0,0,1,0,4.1l-1.066,1.066-.009.009-4.254,4.254a2.9,2.9,0,0,1-4.1,0L82.944,14.06a2.9,2.9,0,0,1,0-4.1l5.329-5.329a2.888,2.888,0,0,1,2.051-.848Zm-21.058,2.6A11.835,11.835,0,0,1,83.958,4.8L80.872,7.886a5.791,5.791,0,0,0-1.529,2.7,5.563,5.563,0,0,0-7.1.633L62.126,21.338a2.769,2.769,0,0,1-3.912,0,2.763,2.763,0,0,1,0-3.909Zm-55.975,19.3a2.623,2.623,0,0,1,0-3.71l8.327-8.326a2.626,2.626,0,0,1,3.71,0l2.393,2.392a40.853,40.853,0,0,0-5.7,4.531l-.739-.739A1.465,1.465,0,1,0,19.2,21.9l.761.761a40.6,40.6,0,0,0-4.205,5.489ZM22.531,3.3a11.733,11.733,0,0,1,7.849,3.439L35.643,12A40.5,40.5,0,0,0,30.3,14.473l-2.9-2.9a5.561,5.561,0,0,0-7.011-.69,5.791,5.791,0,0,0-1.538-2.717L15.78,5.1a11.729,11.729,0,0,1,6.751-1.8ZM4.631,7.626,7.347,4.909a2.906,2.906,0,0,1,4.1,0l1.061,1.062.016.015,4.252,4.251a2.9,2.9,0,0,1,0,4.1l-2.717,2.716a2.9,2.9,0,0,1-4.1,0L4.631,11.728a2.9,2.9,0,0,1,0-4.1ZM4.8,16.044l3.085,3.085a5.8,5.8,0,0,0,2.7,1.529,5.551,5.551,0,0,0,.633,7.095L21.34,37.873a2.765,2.765,0,0,1-3.91,3.912L6.378,30.733A11.83,11.83,0,0,1,4.8,16.044Zm0,0" transform="translate(-0.001 0.001)" fill="#ffb900"/>
  <path id="Path_243" data-name="Path 243" d="M121.528,279.556l-7.189,6.372a2.753,2.753,0,0,0-.234,3.881l3.961,4.469a.118.118,0,0,1,.012.015l.011.01,3.8,4.286a2.752,2.752,0,0,0,3.88.233l7.189-6.373a2.752,2.752,0,0,0,.234-3.881l-7.783-8.78a2.752,2.752,0,0,0-3.881-.233Zm1.808,2.312,2.824,3.185-6.876,6.185L116.416,288Zm.624,14.644-2.731-3.082,6.875-6.184,2.776,3.131Zm0,0" transform="translate(-91.263 -224.396)" fill="#ffb900"/>
  <path id="Path_244" data-name="Path 244" d="M291.576,130.454l-10.313,9.14a2.974,2.974,0,0,0-.253,4.2l7.486,8.445a2.954,2.954,0,0,0,2.046,1c.061,0,.122.005.182.005a2.951,2.951,0,0,0,1.968-.749l10.313-9.141a2.974,2.974,0,0,0,.253-4.2l-7.485-8.444A2.977,2.977,0,0,0,291.576,130.454Zm9.5,10.672a.035.035,0,0,1-.014.03h0L290.75,150.3a.033.033,0,0,1-.031.011.04.04,0,0,1-.03-.014l-7.485-8.445a.039.039,0,0,1-.011-.031.043.043,0,0,1,.014-.031l10.313-9.14a.044.044,0,0,1,.029-.011.041.041,0,0,1,.033.014l7.486,8.445A.037.037,0,0,1,301.077,141.126Zm0,0" transform="translate(-225.523 -104.372)" fill="#ffb900"/>
</svg>
