<svg xmlns="http://www.w3.org/2000/svg" width="205" height="195" viewBox="0 0 205 195">
  <g id="piggy-bank" transform="translate(59 55.52)">
    <g id="Path_261" data-name="Path 261" transform="translate(-59 -55.52)" fill="none">
      <path d="M102.5,0C159.109,0,205,43.652,205,97.5S159.109,195,102.5,195,0,151.348,0,97.5,45.891,0,102.5,0Z" stroke="none"/>
      <path d="M 102.5 5 C 95.86540985107422 5 89.23668670654297 5.635467529296875 82.79796600341797 6.888748168945313 C 76.52764892578125 8.1092529296875 70.36077880859375 9.930099487304688 64.46865844726563 12.30068969726563 C 58.68630981445313 14.62709045410156 53.10993957519531 17.50611877441406 47.8944091796875 20.8577880859375 C 42.73171997070313 24.17550659179688 37.87783813476563 27.98481750488281 33.46762084960938 32.17987060546875 C 29.06178283691406 36.37081909179688 25.06285095214844 40.98088073730469 21.58184814453125 45.88206481933594 C 18.07183837890625 50.82412719726563 15.05787658691406 56.105712890625 12.6236572265625 61.58009338378906 C 10.14694213867188 67.15006256103516 8.2449951171875 72.97796630859375 6.970596313476563 78.90190887451172 C 5.662994384765625 84.98027801513672 5 91.23759460449219 5 97.5 C 5 103.7624053955078 5.662994384765625 110.0197219848633 6.970596313476563 116.0980911254883 C 8.2449951171875 122.0220336914063 10.14694213867188 127.8499374389648 12.6236572265625 133.4199066162109 C 15.05787658691406 138.894287109375 18.07183837890625 144.1758728027344 21.58184814453125 149.1179351806641 C 25.06285095214844 154.0191345214844 29.06178283691406 158.6291809082031 33.46762084960938 162.8201293945313 C 37.87783813476563 167.0151824951172 42.73171997070313 170.8244934082031 47.8944091796875 174.1422119140625 C 53.10993957519531 177.4938812255859 58.68630981445313 180.3729095458984 64.46865844726563 182.6993103027344 C 70.36077880859375 185.0699005126953 76.52764892578125 186.8907470703125 82.79796600341797 188.1112518310547 C 89.23668670654297 189.3645324707031 95.86540985107422 190 102.5 190 C 109.1345901489258 190 115.763313293457 189.3645324707031 122.202033996582 188.1112518310547 C 128.4723510742188 186.8907470703125 134.6392211914063 185.0699005126953 140.5313415527344 182.6993103027344 C 146.3136901855469 180.3729095458984 151.8900604248047 177.4938812255859 157.1055908203125 174.1422119140625 C 162.2682800292969 170.8244934082031 167.1221618652344 167.0151824951172 171.5323791503906 162.8201293945313 C 175.9382171630859 158.6291809082031 179.9371643066406 154.0191345214844 183.4181518554688 149.1179351806641 C 186.9281616210938 144.1758728027344 189.9421234130859 138.894287109375 192.3763427734375 133.4199066162109 C 194.8530578613281 127.8499374389648 196.7550048828125 122.0220336914063 198.0294036865234 116.0980911254883 C 199.3370056152344 110.0197219848633 200 103.7624053955078 200 97.5 C 200 91.23759460449219 199.3370056152344 84.98027801513672 198.0294036865234 78.90190887451172 C 196.7550048828125 72.97796630859375 194.8530578613281 67.15006256103516 192.3763427734375 61.58009338378906 C 189.9421234130859 56.105712890625 186.9281616210938 50.82412719726563 183.4181518554688 45.88206481933594 C 179.9371643066406 40.98088073730469 175.9382171630859 36.37081909179688 171.5323791503906 32.17987060546875 C 167.1221618652344 27.98481750488281 162.2682800292969 24.17550659179688 157.1055908203125 20.8577880859375 C 151.8900604248047 17.50611877441406 146.3136901855469 14.62709045410156 140.5313415527344 12.30068969726563 C 134.6392211914063 9.930099487304688 128.4723510742188 8.1092529296875 122.202033996582 6.888748168945313 C 115.763313293457 5.635467529296875 109.1345901489258 5 102.5 5 M 102.5 0 C 159.1091918945313 0 205 43.65225219726563 205 97.5 C 205 151.3477478027344 159.1091918945313 195 102.5 195 C 45.89080810546875 195 0 151.3477478027344 0 97.5 C 0 43.65225219726563 45.89080810546875 0 102.5 0 Z" stroke="none" fill="#171b6f"/>
    </g>
    <g id="Group_2" data-name="Group 2" transform="translate(65.029 44.87)">
      <g id="Group_1" data-name="Group 1">
        <path id="Path_203" data-name="Path 203" d="M388.269,270.613A1.2,1.2,0,0,0,387,271.729a1.628,1.628,0,0,1-3.228,0,1.282,1.282,0,0,0-2.542,0,4.191,4.191,0,0,0,8.312,0A1.2,1.2,0,0,0,388.269,270.613Z" transform="translate(-381.228 -270.613)" fill="#171b6f"/>
      </g>
    </g>
    <g id="Group_4" data-name="Group 4" transform="translate(0 5.115)">
      <g id="Group_3" data-name="Group 3">
        <path id="Path_204" data-name="Path 204" d="M84,45.053l-3.577-1.006a1.415,1.415,0,0,1-.966-.859,19.431,19.431,0,0,0-3.382-5.872,22.553,22.553,0,0,0-2.259-2.339,24.441,24.441,0,0,0,.777-6.32c-.053-2.843-.7-4.51-1.978-5.1-.688-.317-2.783-1.279-14.121,3.277a4.28,4.28,0,0,0-.751.393c-.764-.18-1.546-.347-2.332-.5-.095-.018-.192-.034-.288-.052a13.705,13.705,0,0,0,1.556-5.651,1.184,1.184,0,0,0-1.213-1.165,1.217,1.217,0,0,0-1.327,1.065,12.287,12.287,0,0,1-4.322,8.605,15.1,15.1,0,0,1-5.354,3,41.941,41.941,0,0,0-10.231,0,15.1,15.1,0,0,1-5.354-3,12.169,12.169,0,0,1-4.337-9.19,12.169,12.169,0,0,1,4.337-9.19,16.3,16.3,0,0,1,20.939,0,13.2,13.2,0,0,1,2.76,3.346,1.359,1.359,0,0,0,1.707.495,1.056,1.056,0,0,0,.564-1.5,15.462,15.462,0,0,0-3.233-3.92,18.521,18.521,0,0,0-12.267-4.46,18.521,18.521,0,0,0-12.267,4.46A14.259,14.259,0,0,0,22,20.344a14.258,14.258,0,0,0,5.081,10.768,17.169,17.169,0,0,0,3.061,2.141h0q-1.185.27-2.35.61a1.091,1.091,0,0,0-.8,1.412,1.318,1.318,0,0,0,1.608.7,38.629,38.629,0,0,1,21.5,0,1.431,1.431,0,0,0,.4.058,1.27,1.27,0,0,0,1.205-.762,1.091,1.091,0,0,0-.8-1.412q-1.163-.341-2.35-.61h0a17.163,17.163,0,0,0,3.061-2.141,15.871,15.871,0,0,0,2.215-2.387c.35.06.7.122,1.041.188q.685.13,1.361.279c-.014.049-.029.1-.04.146a11.741,11.741,0,0,0,.12,6.788,8.2,8.2,0,0,0,3.371,4.159,11.748,11.748,0,0,0,6.256,1.743,9.349,9.349,0,0,0,4.054-.823,6.919,6.919,0,0,0,2.988-3.725q.549.563,1.041,1.153a17.29,17.29,0,0,1,3.01,5.226,3.823,3.823,0,0,0,2.615,2.315l3.577,1.006a2.021,2.021,0,0,1,1.569,1.888v5.207a2.021,2.021,0,0,1-1.569,1.888l-5.764,1.621a3.866,3.866,0,0,0-2.2,1.567C73,62.783,69.439,65.626,64.681,67.8a1.789,1.789,0,0,0-1.045,1.232l-1.846,8.58a.557.557,0,0,1-.561.408h-6a.557.557,0,0,1-.561-.408l-1.022-4.742a1.989,1.989,0,0,0-2.271-1.41,60.391,60.391,0,0,1-7.918.517,57.65,57.65,0,0,1-5.825-.289,2,2,0,0,0-2.2,1.418l-.972,4.506a.557.557,0,0,1-.561.408h-6a.558.558,0,0,1-.562-.411l-1.777-8.1a1.79,1.79,0,0,0-1.026-1.218c-8.11-3.8-12.4-10.15-12.4-18.362a19.413,19.413,0,0,1,3.073-10.9,21.111,21.111,0,0,1,8.261-7.08,1.045,1.045,0,0,0,.464-1.525,1.372,1.372,0,0,0-1.737-.407C15.254,33.53,11.069,38.966,9.916,45.87h0c-.122-.01-.245-.019-.367-.03a4.961,4.961,0,0,0-.466-2.226,5.065,5.065,0,0,0-3.859-2.959,3.733,3.733,0,0,0-3.308,1.293C.7,43.355.9,44.468,1.281,45.154c.64,1.158,2.286,1.977,5.016,2.492q-.113.148-.248.3A6.571,6.571,0,0,1,1.3,50.15,1.257,1.257,0,0,0,0,51.315v.005a1.25,1.25,0,0,0,1.275,1.165q.137.006.286.006a8.663,8.663,0,0,0,6.477-3.156,6.292,6.292,0,0,0,.928-1.316q.36.036.691.062h0c-.043.6-.067,1.218-.067,1.842a20.9,20.9,0,0,0,3.75,12.313,24.723,24.723,0,0,0,9.766,7.911l1.728,7.879a3.038,3.038,0,0,0,3.059,2.225h6a3.038,3.038,0,0,0,3.059-2.225l.878-4.074c1.824.17,3.713.256,5.623.256a63.485,63.485,0,0,0,7.788-.476l.926,4.3a3.038,3.038,0,0,0,3.059,2.224h6a3.038,3.038,0,0,0,3.059-2.225l1.8-8.354a26.648,26.648,0,0,0,11.378-9.205,1.365,1.365,0,0,1,.773-.559L84,58.286a4.3,4.3,0,0,0,3.336-4.013V49.065A4.3,4.3,0,0,0,84,45.053ZM71.86,31.792c-.489,3.672-1.8,6.814-3.12,7.47a8.7,8.7,0,0,1-7.557-.779c-2.6-1.67-3.467-4.674-2.5-8.686h0a1.4,1.4,0,0,1,.872-.932c6.363-2.557,10.032-3.393,11.395-3.393a1.5,1.5,0,0,1,.461.054C71.817,25.909,72.354,28.086,71.86,31.792ZM3.569,44.18c-.132-.238.179-.657.376-.885a1.052,1.052,0,0,1,.817-.436,1.086,1.086,0,0,1,.128.008,2.658,2.658,0,0,1,1.837,1.579A3.046,3.046,0,0,1,6.992,45.5C5.232,45.179,3.865,44.717,3.569,44.18Z" transform="translate(0 -5.115)" fill="#171b6f"/>
      </g>
    </g>
    <g id="Group_6" data-name="Group 6" transform="translate(34.601 12.279)">
      <g id="Group_5" data-name="Group 5">
        <path id="Path_205" data-name="Path 205" d="M208.828,59.745V55.752c1.568.1,2.151.728,2.689.728.672,0,.986-.747.986-1.121,0-.964-2.151-1.377-3.675-1.416v-.531c0-.236-.336-.452-.672-.452-.381,0-.65.216-.65.452v.57c-2.129.2-4.257,1.18-4.257,3.659,0,2.518,2.241,3.226,4.257,3.855v4.622c-2.286-.157-2.89-1.534-3.63-1.534a1.193,1.193,0,0,0-1.031,1.121c0,.964,1.882,2.282,4.661,2.321h0v.61c0,.236.269.452.65.452.336,0,.672-.216.672-.452v-.669c2.42-.3,4.078-1.633,4.078-4.052C212.906,61.24,210.777,60.374,208.828,59.745Zm-1.188-.374c-1.188-.393-2.151-.806-2.151-1.927,0-1.023.9-1.515,2.151-1.652Zm1.053,6.707v-4.15c1.1.413,1.972.964,1.972,2.2C210.665,65.252,209.9,65.882,208.693,66.078Z" transform="translate(-202.845 -52.959)" fill="#171b6f"/>
      </g>
    </g>
  </g>
</svg>
